<?xml version="1.0" encoding="UTF-8" standalone="no"?>
<!-- Generator: Adobe Illustrator 19.0.0, SVG Export Plug-In . SVG Version: 6.00 Build 0)  -->

<svg
   version="1.0"
   id="Layer_1"
   x="0px"
   y="0px"
   viewBox="0 0 772.26005 218.31843"
   enable-background="new 0 0 600 400"
   xml:space="preserve"
   sodipodi:docname="logo.svg"
   width="772.26007"
   height="218.31844"
   inkscape:version="1.2.2 (b0a8486541, 2022-12-01)"
   inkscape:export-filename="eventhunt-brand-sample-1.png"
   inkscape:export-xdpi="56.630817"
   inkscape:export-ydpi="56.630817"
   xmlns:inkscape="http://www.inkscape.org/namespaces/inkscape"
   xmlns:sodipodi="http://sodipodi.sourceforge.net/DTD/sodipodi-0.dtd"
   xmlns="http://www.w3.org/2000/svg"
   xmlns:svg="http://www.w3.org/2000/svg"><defs
   id="defs6"><rect
     x="-191.1761"
     y="1209.9102"
     width="1298.7018"
     height="1209.9102"
     id="rect444" /><rect
     x="729.36426"
     y="-1814.1516"
     width="561.74634"
     height="215.937"
     id="rect23451-2" /><rect
     x="729.36426"
     y="-1814.1516"
     width="561.74634"
     height="215.937"
     id="rect23451-2-3" /><rect
     x="729.36426"
     y="-1814.1516"
     width="561.74634"
     height="215.937"
     id="rect23451-2-6" /><rect
     x="729.36426"
     y="-1814.1516"
     width="561.74634"
     height="215.937"
     id="rect23451-2-9" /></defs><sodipodi:namedview
   id="namedview4"
   pagecolor="#505050"
   bordercolor="#ffffff"
   borderopacity="1"
   inkscape:showpageshadow="0"
   inkscape:pageopacity="0"
   inkscape:pagecheckerboard="1"
   inkscape:deskcolor="#505050"
   showgrid="false"
   inkscape:zoom="0.32559558"
   inkscape:cx="-236.4897"
   inkscape:cy="35.31989"
   inkscape:window-width="1512"
   inkscape:window-height="876"
   inkscape:window-x="0"
   inkscape:window-y="0"
   inkscape:window-maximized="1"
   inkscape:current-layer="Layer_1" />

<g
   id="g23395-1-6"
   transform="matrix(0.31188349,0,0,0.31188349,-167.89481,559.34433)"><path
     style="fill:#222426;fill-opacity:1;stroke-width:2.67073"
     d="m 969.91638,-1711.7155 c -48.6074,-52.6135 -112.1709,-81.7245 -178.9393,-81.7245 h -0.5342 c -66.5013,0.2671 -130.06482,29.111 -178.40514,81.7245 -46.73788,50.744 -73.71231,118.5807 -73.71231,185.6162 0,261.465 252.38455,432.6593 252.38455,432.6593 0,0 253.18582,-170.6601 253.18582,-432.6593 -0.2671,-67.0355 -27.2415,-134.6051 -73.97942,-185.6162 z"
     id="XMLID_2_-2-2-26" /><path
     style="fill:#fefefe;fill-opacity:1;stroke-width:2.67073"
     d="m 790.70998,-1236.8586 c 0,0 -145.55511,-116.4441 -145.55511,-285.2346 0,-97.749 45.13543,-104.4258 60.09155,-104.4258 14.68905,0 28.04276,8.5463 36.85616,21.9 6.1427,9.0805 11.7512,24.3037 11.7512,42.7318 0,31.2476 -21.3659,49.9428 -21.3659,49.9428 6.1427,26.1732 29.3782,45.6695 57.4209,45.6695 0.267,0 0.5341,0 0.8012,0 0.2671,0 0.5341,0 0.8012,0 28.0427,0 51.2781,-19.4963 57.4208,-45.6695 0,0 -21.3658,-18.6952 -21.3658,-49.9428 0,-18.161 5.8756,-33.6513 11.7512,-42.7318 8.8134,-13.3537 22.1671,-21.9 36.8561,-21.9 14.9562,0 60.0916,6.6768 60.0916,104.4258 0.2671,168.7905 -145.5551,285.2346 -145.5551,285.2346 z"
     id="path20970-9-7-1" /></g><g
   aria-label="EventHunt"
   transform="translate(-507.06285,1858.6734)"
   id="text23449-0-8"
   style="font-weight:bold;font-size:120px;font-family:'Madimi One';-inkscape-font-specification:'Madimi One Bold';white-space:pre;shape-inside:url(#rect23451-2-9);display:inline;fill:#fefefe;stroke-width:29;paint-order:stroke markers fill"><path
     d="m 743.40328,-1707.3342 q -2.28,0 -3.84,-1.8 -1.56,-1.8 -1.56,-4.56 v -56.16 q 0,-11.28 6.96,-16.32 6.96,-5.16 22.44,-5.16 h 15 q 3.96,0 6.12,2.16 2.28,2.04 2.28,5.88 0,3.72 -2.28,5.76 -2.16,2.04 -6.12,2.04 h -15.84 q -6,0 -8.64,2.4 -2.64,2.4 -2.64,7.8 0,1.92 -0.24,4.8 -0.24,2.76 -0.72,6.36 2.04,-1.68 5.16,-2.64 3.12,-1.08 6.12,-1.08 h 11.88 q 3.36,0 5.16,2.04 1.92,2.04 1.92,5.64 0,3.6 -1.92,5.76 -1.92,2.16 -5.16,2.16 h -12.84 q -5.52,0 -7.44,2.28 -1.92,2.16 -1.92,8.88 v 7.92 h 27.12 q 4.44,0 6.36,1.92 2.04,1.92 2.04,6.24 0,4.08 -1.92,5.88 -1.92,1.8 -6.48,1.8 z"
     id="path246" /><path
     d="m 819.60337,-1706.3742 q -2.4,0 -5.04,-0.96 -2.52,-1.08 -4.8,-3.72 -2.28,-2.76 -3.96,-7.92 l -12.6,-39.48 q -0.84,-2.76 0.24,-5.04 1.08,-2.4 3.48,-3.72 2.4,-1.44 5.28,-1.44 2.64,0 4.8,1.32 2.28,1.32 3.12,4.08 l 11.76,39.72 q 4.56,-7.56 6,-15 1.56,-7.56 1.56,-14.52 0,-2.16 -0.12,-4.2 -0.12,-2.16 -0.12,-4.08 0,-3.48 2.76,-5.4 2.88,-1.92 6.36,-1.92 7.2,0 8.28,6.84 0.24,1.2 0.36,3.24 0.12,1.92 0.12,4.44 0,4.08 -0.84,9.6 -0.72,5.4 -2.88,11.64 -2.04,6.12 -6.24,12.6 -3.72,5.76 -6.72,8.76 -2.88,3 -5.52,4.08 -2.64,1.08 -5.28,1.08 z"
     id="path248" /><path
     d="m 885.84337,-1706.3742 q -12,0 -18.84,-3.96 -6.72,-3.96 -9.6,-10.92 -2.76,-6.96 -2.76,-15.96 0,-16.56 7.32,-23.76 7.32,-7.32 19.68,-7.32 7.44,0 13.2,2.52 5.76,2.52 9,7.2 3.24,4.56 3.24,11.16 0,19.2 -27.36,19.2 h -6.96 q 0.96,3.72 3.12,5.88 2.28,2.04 7.92,2.04 3.12,0 5.04,-0.36 1.92,-0.36 3.6,-0.72 1.8,-0.36 4.08,-0.36 3.24,0 5.16,1.2 1.92,1.08 1.92,4.56 0,4.92 -4.32,7.32 -4.2,2.28 -13.44,2.28 z m -13.92,-30.72 q 0.96,-1.32 2.16,-1.68 1.2,-0.48 3.72,-0.48 7.08,0 9.72,-1.32 2.76,-1.44 2.76,-5.04 0,-4.56 -2.52,-6.96 -2.52,-2.52 -6.36,-2.52 -4.44,0 -6.96,3.72 -2.52,3.72 -2.52,14.28 z"
     id="path250" /><path
     d="m 926.16328,-1706.3742 q -8.64,0 -8.64,-8.16 v -28.8 q 0,-11.52 7.32,-18.24 7.44,-6.72 19.56,-6.72 12.12,0 19.44,6.72 7.44,6.72 7.44,18.24 v 28.8 q 0,8.16 -8.64,8.16 -8.64,0 -8.64,-8.16 v -27.84 q 0,-5.64 -2.52,-8.52 -2.52,-3 -7.08,-3 -4.56,0 -7.08,3 -2.52,2.88 -2.52,8.52 v 27.84 q 0,8.16 -8.64,8.16 z"
     id="path252" /><path
     d="m 1009.0832,-1706.3742 q -11.16001,0 -16.56001,-5.28 -5.28,-5.28 -5.28,-16.2 v -24.96 h -3.12 q -8.16,0 -8.16,-7.32 0,-7.2 8.16,-7.2 h 3.12 v -12.96 q 0,-3.96 2.4,-6.48 2.52,-2.52 6.48,-2.52 3.84,0 6.12001,2.4 2.28,2.28 2.28,6.36 v 5.88 q 0,4.44 -1.44,7.32 h 11.4 q 8.16,0 8.16,7.2 0,7.32 -8.16,7.32 h -9.96 v 25.32 q 0,3.6 0.84,5.16 0.84,1.44 2.76,1.44 2.52,0 3.72,-0.36 1.32,-0.48 3.24,-0.48 3.24,0 5.16,1.2 1.92,1.08 1.92,4.56 0,4.92 -3.12,7.32 -3.12,2.28 -9.96,2.28 z"
     id="path254" /><path
     d="m 1042.9232,-1706.3742 q -8.88,0 -8.88,-8.04 v -70.2 q 0,-4.2 2.04,-6.12 2.04,-1.92 6.48,-1.92 8.76,0 8.76,8.04 v 12 q 0,14.88 -0.84,17.76 3.12,-3.12 6.72,-4.32 3.6,-1.2 9.48,-1.2 h 11.76 v -24.24 q 0,-4.2 2.04,-6.12 2.04,-1.92 6.48,-1.92 8.76,0 8.76,8.04 v 70.2 q 0,4.08 -2.04,6.12 -1.92,1.92 -6.36,1.92 -8.88,0 -8.88,-8.04 v -35.52 q -0.72,2.16 -4.68,3.6 -3.96,1.32 -9.24,1.32 -7.56,0 -10.44,3.12 -2.76,3 -2.76,11.16 v 16.32 q 0,4.08 -2.04,6.12 -1.92,1.92 -6.36,1.92 z"
     id="path256" /><path
     d="m 1135.4432,-1706.3742 q -7.92,0 -13.92,-3.24 -6,-3.24 -9.36,-9.12 -3.24,-5.88 -3.24,-13.68 v -28.08 q 0,-8.16 8.64,-8.16 8.64,0 8.64,8.16 v 27.84 q 0,5.64 2.4,8.76 2.4,3.12 6.84,3.12 4.44,0 6.84,-3.12 2.4,-3.12 2.4,-8.76 v -27.84 q 0,-8.16 8.64,-8.16 8.64,0 8.64,8.16 v 28.08 q 0,7.8 -3.36,13.68 -3.24,5.88 -9.24,9.12 -5.88,3.24 -13.92,3.24 z"
     id="path258" /><path
     d="m 1182.8431,-1706.3742 q -8.64,0 -8.64,-8.16 v -28.8 q 0,-11.52 7.32,-18.24 7.44,-6.72 19.56,-6.72 12.12,0 19.44,6.72 7.44,6.72 7.44,18.24 v 28.8 q 0,8.16 -8.64,8.16 -8.64,0 -8.64,-8.16 v -27.84 q 0,-5.64 -2.52,-8.52 -2.52,-3 -7.08,-3 -4.56,0 -7.08,3 -2.52,2.88 -2.52,8.52 v 27.84 q 0,8.16 -8.64,8.16 z"
     id="path260" /><path
     d="m 1265.7629,-1706.3742 q -11.16,0 -16.56,-5.28 -5.28,-5.28 -5.28,-16.2 v -24.96 h -3.12 q -8.16,0 -8.16,-7.32 0,-7.2 8.16,-7.2 h 3.12 v -12.96 q 0,-3.96 2.4,-6.48 2.52,-2.52 6.48,-2.52 3.84,0 6.12,2.4 2.28,2.28 2.28,6.36 v 5.88 q 0,4.44 -1.44,7.32 h 11.4 q 8.16,0 8.16,7.2 0,7.32 -8.16,7.32 h -9.96 v 25.32 q 0,3.6 0.84,5.16 0.84,1.44 2.76,1.44 2.52,0 3.72,-0.36 1.32,-0.48 3.24,-0.48 3.24,0 5.16,1.2 1.92,1.08 1.92,4.56 0,4.92 -3.12,7.32 -3.12,2.28 -9.96,2.28 z"
     id="path262" /></g><g
   id="g1834"
   transform="translate(-1373.4474,-1346.4711)"
   style="fill:#74c0fc;fill-opacity:1"><path
     id="path815-9"
     style="stroke-width:29;paint-order:stroke markers fill"
     d="m 1429.579,1416.4904 a 6,6 0 0 1 -6,6 6,6 0 0 1 -6,-6 6,6 0 0 1 6,-6 6,6 0 0 1 6,6 z" /><path
     id="path815-7-2"
     style="stroke-width:29;paint-order:stroke markers fill"
     d="m 1485.6674,1416.4904 a 6,6 0 0 1 -6,6 6,6 0 0 1 -6,-6 6,6 0 0 1 6,-6 6,6 0 0 1 6,6 z" /></g><text
   xml:space="preserve"
   id="text442"
   style="font-weight:bold;font-size:166.667px;font-family:Rowdies;-inkscape-font-specification:'Rowdies Bold';text-align:end;white-space:pre;shape-inside:url(#rect444);fill:#006241;stroke:#222426;stroke-width:105;paint-order:stroke markers fill"
   transform="translate(-1159.9005,-676.64827)" /></svg>
